<?xml version="1.0" encoding="UTF-8"?>

<svg version="1.2" baseProfile="tiny" width="75mm" height="25mm" viewBox="0 0 7500 2500" preserveAspectRatio="xMidYMid" fill-rule="evenodd" clip-path="url(#presentation_clip_path)" stroke-width="28.222" stroke-linejoin="round" xmlns="http://www.w3.org/2000/svg" xmlns:ooo="http://xml.openoffice.org/svg/export" xmlns:xlink="http://www.w3.org/1999/xlink" xml:space="preserve">
 <defs class="ClipPathGroup">
  <clipPath id="presentation_clip_path" clipPathUnits="userSpaceOnUse">
   <rect x="0" y="0" width="7500" height="2500"/>
  </clipPath>
 </defs>
 <defs class="TextShapeIndex">
  <g ooo:slide="id1" ooo:id-list="id3 id4"/>
 </defs>
 <defs class="EmbeddedBulletChars">
  <g id="bullet-char-template(57356)" transform="scale(0.00048828125,-0.00048828125)">
   <path d="M 580,1141 L 1163,571 580,0 -4,571 580,1141 Z"/>
  </g>
  <g id="bullet-char-template(57354)" transform="scale(0.00048828125,-0.00048828125)">
   <path d="M 8,1128 L 1137,1128 1137,0 8,0 8,1128 Z"/>
  </g>
  <g id="bullet-char-template(10146)" transform="scale(0.00048828125,-0.00048828125)">
   <path d="M 174,0 L 602,739 174,1481 1456,739 174,0 Z M 1358,739 L 309,1346 659,739 1358,739 Z"/>
  </g>
  <g id="bullet-char-template(10132)" transform="scale(0.00048828125,-0.00048828125)">
   <path d="M 2015,739 L 1276,0 717,0 1260,543 174,543 174,936 1260,936 717,1481 1274,1481 2015,739 Z"/>
  </g>
  <g id="bullet-char-template(10007)" transform="scale(0.00048828125,-0.00048828125)">
   <path d="M 0,-2 C -7,14 -16,27 -25,37 L 356,567 C 262,823 215,952 215,954 215,979 228,992 255,992 264,992 276,990 289,987 310,991 331,999 354,1012 L 381,999 492,748 772,1049 836,1024 860,1049 C 881,1039 901,1025 922,1006 886,937 835,863 770,784 769,783 710,716 594,584 L 774,223 C 774,196 753,168 711,139 L 727,119 C 717,90 699,76 672,76 641,76 570,178 457,381 L 164,-76 C 142,-110 111,-127 72,-127 30,-127 9,-110 8,-76 1,-67 -2,-52 -2,-32 -2,-23 -1,-13 0,-2 Z"/>
  </g>
  <g id="bullet-char-template(10004)" transform="scale(0.00048828125,-0.00048828125)">
   <path d="M 285,-33 C 182,-33 111,30 74,156 52,228 41,333 41,471 41,549 55,616 82,672 116,743 169,778 240,778 293,778 328,747 346,684 L 369,508 C 377,444 397,411 428,410 L 1163,1116 C 1174,1127 1196,1133 1229,1133 1271,1133 1292,1118 1292,1087 L 1292,965 C 1292,929 1282,901 1262,881 L 442,47 C 390,-6 338,-33 285,-33 Z"/>
  </g>
  <g id="bullet-char-template(9679)" transform="scale(0.00048828125,-0.00048828125)">
   <path d="M 813,0 C 632,0 489,54 383,161 276,268 223,411 223,592 223,773 276,916 383,1023 489,1130 632,1184 813,1184 992,1184 1136,1130 1245,1023 1353,916 1407,772 1407,592 1407,412 1353,268 1245,161 1136,54 992,0 813,0 Z"/>
  </g>
  <g id="bullet-char-template(8226)" transform="scale(0.00048828125,-0.00048828125)">
   <path d="M 346,457 C 273,457 209,483 155,535 101,586 74,649 74,723 74,796 101,859 155,911 209,963 273,989 346,989 419,989 480,963 531,910 582,859 608,796 608,723 608,648 583,586 532,535 482,483 420,457 346,457 Z"/>
  </g>
  <g id="bullet-char-template(8211)" transform="scale(0.00048828125,-0.00048828125)">
   <path d="M -4,459 L 1135,459 1135,606 -4,606 -4,459 Z"/>
  </g>
 </defs>
 <defs class="TextEmbeddedBitmaps"/>
 <g>
  <g id="id2" class="Master_Slide">
   <g id="bg-id2" class="Background"/>
   <g id="bo-id2" class="BackgroundObjects"/>
  </g>
 </g>
 <g class="SlideGroup">
  <g>
   <g id="id1" class="Slide" clip-path="url(#presentation_clip_path)">
    <g class="Page">
     <g class="Graphic">
      <g id="id3">
       <path fill="rgb(0,0,0)" stroke="none" d="M 2800,1075 L 2319,1075 C 2306,1075 2296,1085 2296,1098 L 2296,1340 C 2296,1352 2306,1363 2319,1363 L 2506,1363 2506,1663 C 2506,1663 2464,1678 2348,1678 2210,1678 2018,1626 2018,1192 2018,758 2218,701 2406,701 2568,701 2638,731 2683,745 2697,749 2710,735 2710,722 L 2764,489 C 2764,483 2761,475 2755,471 2737,457 2626,394 2348,394 2026,394 1697,534 1697,1209 1697,1884 2074,1985 2392,1985 2655,1985 2815,1869 2815,1869 2822,1866 2822,1856 2822,1852 L 2822,1098 C 2822,1085 2812,1075 2800,1075 L 2800,1075 Z M 5233,452 L 4963,452 C 4950,452 4940,462 4940,475 L 4940,1013 4518,1013 4518,475 C 4518,462 4508,452 4496,452 L 4224,452 C 4212,452 4202,462 4202,475 L 4202,1931 C 4202,1944 4212,1954 4224,1954 L 4496,1954 C 4508,1954 4518,1944 4518,1931 L 4518,1308 4940,1308 4939,1931 C 4939,1944 4949,1954 4961,1954 L 5232,1954 C 5245,1954 5255,1944 5255,1931 L 5255,475 C 5256,462 5246,452 5233,452 L 5233,452 Z M 3123,485 C 3027,485 2949,566 2949,666 2949,766 3027,847 3123,847 3220,847 3298,766 3298,666 3298,566 3220,485 3123,485 L 3123,485 Z M 3279,952 C 3279,939 3269,929 3257,929 L 2987,929 C 2974,929 2963,942 2963,955 2963,955 2963,1763 2963,1918 2963,1946 2980,1954 3002,1954 3002,1954 3118,1954 3246,1954 3272,1954 3279,1941 3279,1917 3279,1865 3279,1663 3279,1624 3279,1587 3279,952 3279,952 L 3279,952 Z M 6282,931 L 6013,931 C 6001,931 5991,941 5991,954 L 5991,1668 C 5991,1668 5923,1720 5826,1720 5729,1720 5703,1674 5703,1577 5703,1479 5703,954 5703,954 5703,941 5693,931 5681,931 L 5408,931 C 5396,931 5386,941 5386,954 5386,954 5386,1334 5386,1624 5386,1913 5543,1984 5759,1984 5936,1984 6079,1884 6079,1884 6079,1884 6086,1936 6089,1943 6092,1949 6100,1955 6109,1955 L 6282,1955 C 6294,1955 6304,1945 6304,1932 L 6305,954 C 6304,941 6294,931 6282,931 L 6282,931 Z M 7018,898 C 6865,898 6761,968 6761,968 L 6761,475 C 6761,462 6751,452 6739,452 L 6467,452 C 6455,452 6445,462 6445,475 L 6444,1931 C 6444,1944 6455,1954 6467,1954 6467,1954 6656,1954 6656,1954 6665,1954 6671,1950 6676,1942 6680,1934 6687,1875 6687,1875 6687,1875 6798,1983 7008,1983 7255,1983 7397,1854 7397,1405 7397,957 7171,898 7018,898 L 7018,898 Z M 6912,1719 C 6819,1716 6756,1672 6756,1672 L 6756,1211 C 6756,1211 6818,1172 6895,1165 6992,1156 7085,1186 7085,1423 7085,1673 7043,1723 6912,1719 L 6912,1719 Z M 4062,1713 C 4050,1713 4019,1718 3988,1718 3888,1718 3854,1671 3854,1609 3854,1547 3854,1199 3854,1199 L 4058,1199 C 4070,1199 4080,1189 4080,1176 L 4080,952 C 4080,939 4070,928 4058,928 L 3854,928 3854,653 C 3854,642 3849,637 3837,637 L 3560,637 C 3550,637 3544,642 3544,652 L 3544,937 C 3544,937 3405,972 3395,975 3386,977 3379,986 3379,997 L 3379,1176 C 3379,1189 3389,1199 3402,1199 L 3544,1199 C 3544,1199 3544,1387 3544,1630 3544,1950 3762,1982 3910,1982 3977,1982 4057,1959 4071,1954 4079,1951 4084,1943 4084,1934 L 4084,1737 C 4084,1724 4073,1713 4062,1713 L 4062,1713 Z"/>
      </g>
     </g>
     <g class="Graphic">
      <g id="id4">
       <path fill="rgb(0,0,0)" stroke="none" d="M 813,554 C 430,554 119,865 119,1249 119,1556 318,1816 594,1908 628,1914 641,1893 641,1875 641,1858 641,1803 640,1745 447,1787 406,1663 406,1663 375,1583 329,1562 329,1562 266,1519 334,1519 334,1519 404,1524 440,1591 440,1591 502,1697 603,1666 642,1649 649,1604 667,1573 687,1556 532,1538 370,1479 370,1213 370,1137 397,1075 442,1026 434,1009 411,938 448,842 448,842 507,824 639,914 695,898 754,890 813,890 872,890 932,898 987,914 1120,824 1178,842 1178,842 1216,938 1192,1009 1185,1026 1230,1075 1256,1137 1256,1213 1256,1479 1094,1538 939,1555 964,1577 986,1619 986,1684 986,1777 986,1852 986,1875 986,1893 998,1915 1033,1908 1309,1816 1508,1556 1508,1249 1508,865 1197,554 813,554 L 813,554 Z"/>
       <path fill="rgb(0,0,0)" stroke="none" d="M 382,1552 C 380,1555 375,1556 370,1554 365,1551 362,1547 364,1543 365,1540 371,1539 376,1541 381,1543 384,1548 382,1552 L 382,1552 382,1552 Z"/>
       <path fill="rgb(0,0,0)" stroke="none" d="M 410,1583 C 407,1586 400,1585 396,1580 391,1575 390,1568 394,1565 397,1562 403,1564 408,1569 413,1573 413,1580 410,1583 L 410,1583 410,1583 Z"/>
       <path fill="rgb(0,0,0)" stroke="none" d="M 437,1623 C 433,1626 426,1623 422,1617 418,1611 418,1603 422,1600 426,1597 433,1600 437,1606 442,1613 442,1620 437,1623 L 437,1623 437,1623 Z"/>
       <path fill="rgb(0,0,0)" stroke="none" d="M 475,1662 C 471,1666 463,1665 457,1659 451,1653 449,1645 453,1641 457,1637 465,1638 471,1644 477,1649 479,1657 475,1662 L 475,1662 475,1662 Z"/>
       <path fill="rgb(0,0,0)" stroke="none" d="M 527,1684 C 525,1689 517,1692 509,1690 501,1687 496,1681 498,1675 499,1670 507,1667 515,1670 523,1672 528,1679 527,1684 L 527,1684 527,1684 Z"/>
       <path fill="rgb(0,0,0)" stroke="none" d="M 583,1688 C 584,1694 577,1699 569,1699 560,1699 554,1694 554,1689 554,1683 560,1678 568,1678 577,1678 583,1683 583,1688 L 583,1688 583,1688 Z"/>
       <path fill="rgb(0,0,0)" stroke="none" d="M 636,1679 C 637,1685 632,1691 623,1692 615,1694 608,1690 607,1685 606,1679 612,1673 620,1672 628,1670 635,1674 636,1679 L 636,1679 636,1679 Z"/>
      </g>
     </g>
    </g>
   </g>
  </g>
 </g>
</svg>