<?xml version="1.0" standalone="no"?>
<!DOCTYPE svg PUBLIC "-//W3C//DTD SVG 20010904//EN"
 "http://www.w3.org/TR/2001/REC-SVG-20010904/DTD/svg10.dtd">
<svg version="1.0" xmlns="http://www.w3.org/2000/svg"
 width="1120.000000pt" height="1200.000000pt" viewBox="0 0 1120.000000 1200.000000"
 preserveAspectRatio="xMidYMid meet">
<metadata>
Created by potrace 1.11, written by Peter Selinger 2001-2013
</metadata>
<g transform="translate(0.000000,1200.000000) scale(0.100000,-0.100000)"
fill="#000000" stroke="none">
<path d="M5160 11983 c-115 -12 -331 -60 -449 -99 -400 -133 -834 -424 -1128
-758 -48 -55 -128 -142 -176 -194 -232 -247 -403 -620 -613 -1337 -99 -338
-132 -847 -120 -1860 l6 -530 -34 -22 c-139 -90 -136 -446 6 -992 44 -170 51
-207 49 -281 -7 -278 139 -536 406 -717 81 -55 83 -57 83 -98 0 -293 192 -793
461 -1203 l48 -73 -41 -42 c-112 -115 -432 -584 -736 -1082 -52 -86 -67 -103
-99 -114 -81 -29 -601 -253 -1088 -468 -240 -107 -355 -149 -1200 -440 -264
-91 -483 -168 -487 -172 -5 -4 -10 -101 -13 -216 -9 -357 -25 -1112 -25 -1201
l0 -84 5595 0 5595 0 0 795 0 795 -62 45 c-72 54 -315 174 -478 238 -383 150
-1058 344 -1708 492 -129 29 -234 55 -236 57 -1 1 -29 61 -61 133 -178 386
-464 789 -827 1160 l-127 131 21 44 c40 90 110 290 167 480 71 235 82 277 116
445 37 184 102 433 142 549 57 164 83 206 167 275 345 282 510 772 466 1392
-16 234 -26 266 -103 344 -42 42 -87 74 -140 100 l-78 38 5 66 c31 387 0 1010
-70 1426 -92 548 -266 1039 -492 1385 -86 132 -289 367 -502 581 -458 459
-887 746 -1352 903 -241 82 -455 117 -701 114 -84 0 -168 -3 -187 -5z"/>
</g>
</svg>
