<?xml version="1.0" encoding="utf-8"?>
<!-- Generator: Adobe Illustrator 16.0.0, SVG Export Plug-In . SVG Version: 6.00 Build 0)  -->
<!DOCTYPE svg PUBLIC "-//W3C//DTD SVG 1.1//EN" "http://www.w3.org/Graphics/SVG/1.1/DTD/svg11.dtd">
<svg version="1.1" id="Layer_5" xmlns="http://www.w3.org/2000/svg" xmlns:xlink="http://www.w3.org/1999/xlink" x="0px" y="0px"
	 width="512px" height="145px" viewBox="0 167 512 145" enable-background="new 0 167 512 145" xml:space="preserve">
<g>
	<path d="M10.827,196.965h18.832v70.87h33.203v12.636H10.827V196.965z"/>
	<path d="M89.499,206.26c0,5.203-3.841,9.417-10.16,9.417c-5.947,0-9.788-4.213-9.788-9.417c0-5.328,3.965-9.417,10.036-9.417
		S89.375,200.932,89.499,206.26z M70.047,280.47v-56.287H88.88v56.287H70.047z"/>
	<path d="M100.647,242.437c0-7.559-0.249-12.802-0.496-18.253h17.181l0.042,7.351h0.372c2.478-3.965,8.548-9.788,18.708-9.788
		c12.389,0,21.682,8.301,21.682,26.143v32.582h-18.832v-30.353c0-7.806-2.726-13.133-9.541-13.133c-5.203,0-8.301,3.593-9.664,7.063
		c-0.496,1.239-0.619,2.975-0.619,4.708v31.716h-18.832V242.437z"/>
	<path d="M188.735,248.631h0.247c1.363-2.601,2.851-5.078,4.337-7.309l12.267-17.139h22.672l-21.682,23.458l24.778,32.829h-23.168
		l-14.743-21.681l-4.708,5.946v15.733h-18.832v-87.966h18.832V248.631L188.735,248.631z"/>
	<path d="M246.47,259.41c0.495,7.806,8.301,11.522,17.098,11.522c6.442,0,11.646-0.868,16.727-2.604l2.478,9.538
		c-6.193,2.603-13.751,3.841-21.929,3.841c-20.566,0-32.337-8.67-32.337-27.627c0-15.362,9.54-30.187,30.602-30.187
		c19.576,0,27.011,13.089,27.011,28.081c0,3.221-0.371,6.069-0.619,7.434L246.47,259.41L246.47,259.41z M268.646,246.525
		c0-4.584-1.981-12.267-10.653-12.267c-7.93,0-11.151,7.312-11.646,12.267H268.646z"/>
	<path d="M353.845,192.505v73.101c0,6.813,0.249,10.775,0.496,14.865h-16.728l-0.742-8.797H336.5
		c-3.718,6.689-11.15,10.159-18.956,10.159c-14.372,0-25.896-9.043-25.896-27.874c-0.123-20.441,12.638-32.336,27.134-32.336
		c7.559,0,13.256,2.726,15.982,6.814h0.248v-35.933H353.845z M335.014,248.755c0-0.99,0-2.354-0.248-3.468
		c-1.115-4.957-5.204-9.168-11.027-9.168c-8.672,0-13.008,7.683-13.008,17.222c0,10.282,5.079,16.726,12.884,16.726
		c5.452,0,9.912-3.717,11.027-9.044c0.248-1.363,0.372-2.851,0.372-4.337V248.755L335.014,248.755z"/>
</g>
<g>
	<path d="M494.052,177.439H380.378c-2.774,0-5.042,2.27-5.042,5.042v113.675c0,2.773,2.268,5.042,5.042,5.042h113.674
		c2.773,0,5.042-2.269,5.042-5.042V182.48C499.094,179.708,496.825,177.439,494.052,177.439z M415.2,278.412h-17.177v-55.375H415.2
		V278.412z M406.752,216.906c-5.426,0-8.929-3.842-8.929-8.588c0-4.859,3.616-8.589,9.154-8.589c5.537,0,8.929,3.729,9.04,8.589
		C416.019,213.064,412.516,216.906,406.752,216.906z M478.903,278.418h-17.179v-29.592c0-7.119-2.486-11.979-8.702-11.979
		c-4.746,0-7.57,3.276-8.813,6.44c-0.452,1.13-0.565,2.713-0.565,4.295v30.825h-17.178V241.82c0-6.893-0.227-13.81-0.452-18.783
		h16.984l-0.017,8.839h0.592c2.26-3.616,6.283-8.928,15.553-8.928c11.3,0,19.776,7.571,19.776,23.845V278.418L478.903,278.418z"/>
</g>
</svg>
