<?xml version="1.0" encoding="utf-8"?>
<!-- Generator: Adobe Illustrator 16.0.0, SVG Export Plug-In . SVG Version: 6.00 Build 0)  -->
<!DOCTYPE svg PUBLIC "-//W3C//DTD SVG 1.1//EN" "http://www.w3.org/Graphics/SVG/1.1/DTD/svg11.dtd">
<svg version="1.1" id="New_logo" xmlns="http://www.w3.org/2000/svg" xmlns:xlink="http://www.w3.org/1999/xlink" x="0px" y="0px"
	 width="749px" height="218px" viewBox="0 0 749 218" enable-background="new 0 0 749 218" xml:space="preserve">
<g id="logo">
	<path d="M24.402,71.645h15.68l38.433,84.19l37.969-84.19h15.786l-52.408,115.42h-2.737L24.402,71.645z"/>
	<path d="M159.79,26.598c3.352,0,6.217,1.211,8.593,3.633c2.373,2.422,3.563,5.342,3.563,8.763c0,3.348-1.19,6.233-3.563,8.655
		c-2.376,2.423-5.241,3.633-8.593,3.633c-3.284,0-6.113-1.21-8.487-3.633c-2.375-2.421-3.562-5.307-3.562-8.655
		c0-3.421,1.188-6.341,3.562-8.763C153.676,27.81,156.506,26.598,159.79,26.598z M152.476,71.645h14.734v115.42h-14.734V71.645z"/>
	<g>
		<path d="M545.756,147.836l11.719,6.253c-3.844,7.664-8.283,13.851-13.32,18.556c-5.037,4.707-10.703,8.287-16.999,10.74
			c-6.297,2.454-13.422,3.681-21.373,3.681c-17.628,0-31.411-5.864-41.353-17.598c-9.94-11.731-14.911-24.993-14.911-39.784
			c0-13.917,4.207-26.321,12.624-37.212c10.669-13.85,24.95-20.775,42.844-20.775c18.423,0,33.134,7.094,44.135,21.279
			c7.819,10.019,11.796,22.524,11.929,37.515H463.82c0.264,12.744,4.275,23.192,12.031,31.342s17.335,12.225,28.737,12.225
			c5.501,0,10.854-0.971,16.059-2.914c5.203-1.94,9.627-4.521,13.273-7.734C537.568,160.193,541.513,155.003,545.756,147.836z
			 M545.756,118.288c-1.856-7.529-4.559-13.547-8.105-18.052c-3.548-4.503-8.237-8.134-14.07-10.892
			c-5.835-2.756-11.966-4.135-18.396-4.135c-10.607,0-19.723,3.463-27.346,10.387c-5.569,5.042-9.779,12.606-12.629,22.691H545.756z
			"/>
	</g>
	<g>
		<path d="M430.577,26.606v160.458h-13.694v-21.677c-5.82,7.189-12.354,12.594-19.598,16.222c-7.244,3.626-15.165,5.44-23.763,5.44
			c-15.281,0-28.329-5.625-39.145-16.876c-10.815-11.251-16.223-24.938-16.223-41.057c0-15.785,5.458-29.286,16.372-40.504
			c10.915-11.217,24.046-16.826,39.391-16.826c8.865,0,16.886,1.914,24.063,5.743s13.48,9.571,18.903,17.229V26.606H430.577z
			 M375.059,85.389c-7.729,0-14.865,1.931-21.407,5.787c-6.542,3.857-11.746,9.278-15.611,16.254
			c-3.865,6.979-5.795,14.357-5.795,22.142c0,7.714,1.948,15.097,5.845,22.139c3.898,7.046,9.136,12.531,15.708,16.455
			c6.574,3.928,13.63,5.888,21.161,5.888c7.601,0,14.799-1.946,21.608-5.838c6.805-3.892,12.038-9.157,15.708-15.799
			c3.667-6.645,5.501-14.123,5.501-22.442c0-12.681-4.114-23.282-12.34-31.802C397.209,89.65,387.084,85.389,375.059,85.389z"/>
	</g>
	<g id="feuille">
		<path d="M642.435,27.183c0,0,18.938,12.557,22.2,47.075c0,0,6.397,82.924-36.504,99.185c0,0,3.838,0.714,8.166,0.511
			c0,0,53.05-33.459,28.714-98.421C665.011,75.532,657.735,52.859,642.435,27.183z"/>
		<path fill="#F89B30" d="M670.126,83.818c0,0-9.882-15.292,2.662-27.902c0,0,4.391-4.84,16.935-8.024
			c0,0,12.544-2.675,19.318-17.068c0,0,14.049,19.616,5.407,45.438c0,0-4.278,11.627-13.198,16.935
			c-6.729,4.005-16.921,5.265-27.584-5.18c0,0,32.238-17.663,33.441-32.615C707.107,55.4,697.207,77.656,670.126,83.818z"/>
		<path d="M670.126,83.818c0,0-9.882-15.292,2.662-27.902c0,0,4.391-4.84,16.935-8.024c0,0,12.544-2.675,19.318-17.068
			c0,0,14.049,19.616,5.407,45.438c0,0-4.278,11.627-13.198,16.935c-6.729,4.005-16.921,5.265-27.584-5.18
			c0,0,32.238-17.663,33.441-32.615C707.107,55.4,697.207,77.656,670.126,83.818z"/>
	</g>
	<g>
		<path fill="none" d="M242.741,85.569c-11.562,0-21.498,4.33-29.804,12.989s-12.459,19.131-12.459,31.415
			c0,7.922,1.894,15.305,5.682,22.151c3.787,6.847,8.903,12.133,15.35,15.858c6.445,3.726,13.522,5.588,21.231,5.588
			c7.707,0,14.784-1.862,21.23-5.588c6.445-3.726,11.562-9.012,15.35-15.858c3.787-6.847,5.682-14.229,5.682-22.151
			c0-12.284-4.17-22.755-12.51-31.415C264.153,89.899,254.236,85.569,242.741,85.569z"/>
		<path d="M299.107,129.67c0-15.237-4.976-28.427-14.925-39.57c-10.946-12.216-24.743-18.325-41.392-18.325
			c-16.716,0-30.547,6.142-41.491,18.426c-9.951,11.143-14.925,24.3-14.925,39.469c0,15.304,5.256,28.68,15.771,40.125
			c10.513,11.445,24.061,17.167,40.645,17.167c16.516,0,30.032-5.722,40.546-17.167c0.605-0.658,1.188-1.325,1.758-1.997
			l0.016,19.267h13.776v-52.143C299.028,133.196,299.107,131.447,299.107,129.67z M279.321,152.124
			c-3.788,6.847-8.905,12.133-15.35,15.858c-6.447,3.726-13.524,5.588-21.23,5.588c-7.708,0-14.786-1.862-21.231-5.588
			c-6.447-3.726-11.563-9.012-15.35-15.858c-3.788-6.847-5.682-14.229-5.682-22.151c0-12.284,4.153-22.755,12.459-31.415
			s18.242-12.989,29.804-12.989c11.495,0,21.412,4.33,29.752,12.989c8.34,8.659,12.51,19.131,12.51,31.415
			C285.003,137.895,283.108,145.277,279.321,152.124z"/>
	</g>
	<path d="M678.345,130.219c0,7.95-1.898,15.359-5.692,22.231c-3.796,6.871-8.922,12.177-15.38,15.915
		c-6.459,3.739-13.55,5.608-21.271,5.608c-7.724,0-14.813-1.869-21.271-5.608c-6.459-3.738-11.585-9.044-15.38-15.915
		c-3.795-6.872-5.692-14.281-5.692-22.231c0-12.328,4.161-22.837,12.483-31.527c8.321-8.69,18.276-13.035,29.86-13.035
		c5.511,0,10.654,1.006,15.44,2.995c0.479-5.035,2.246-9.722,4.203-13.547c-6.023-2.186-12.551-3.292-19.594-3.292
		c-16.748,0-30.605,6.164-41.57,18.492c-9.971,11.183-14.954,24.388-14.954,39.611c0,15.359,5.267,28.783,15.801,40.269
		c10.533,11.486,24.107,17.229,40.724,17.229c16.548,0,30.09-5.742,40.624-17.229c10.533-11.485,15.801-24.909,15.801-40.269
		c0-8.219-1.454-15.839-4.334-22.872c-4.836,2.975-9.432,4.531-13.238,5.325C677.19,117.823,678.345,123.77,678.345,130.219z"/>
</g>
<linearGradient id="SVGID_1_" gradientUnits="userSpaceOnUse" x1="660.834" y1="146.667" x2="660.834" y2="146.667">
	<stop  offset="0" style="stop-color:#F8962D"/>
	<stop  offset="0.1109" style="stop-color:#F89932"/>
	<stop  offset="0.25" style="stop-color:#F9A042"/>
	<stop  offset="0.4043" style="stop-color:#FAAD5C"/>
	<stop  offset="0.5696" style="stop-color:#FBBF7F"/>
	<stop  offset="0.7436" style="stop-color:#FCD6AD"/>
	<stop  offset="0.9223" style="stop-color:#FEF2E5"/>
	<stop  offset="1" style="stop-color:#FFFFFF"/>
</linearGradient>
<path fill="url(#SVGID_1_)" d="M660.834,146.667"/>
</svg>
